<svg width="290" height="290" viewBox="0 0 290 290" fill="none" xmlns="http://www.w3.org/2000/svg">
<path d="M205.755 0H84.245C31.465 0 0 31.465 0 84.245V205.755C0 221.56 2.755 235.335 8.12 246.935C20.59 274.485 47.27 290 84.245 290H205.755C258.535 290 290 258.535 290 205.755V172.55V84.245C290 31.465 258.535 0 205.755 0ZM266.365 152.25C255.055 142.535 236.785 142.535 225.475 152.25L165.155 204.015C153.845 213.73 135.575 213.73 124.265 204.015L119.335 199.955C109.04 190.965 92.655 190.095 81.055 197.925L26.825 234.32C23.635 226.2 21.75 216.775 21.75 205.755V84.245C21.75 43.355 43.355 21.75 84.245 21.75H205.755C246.645 21.75 268.25 43.355 268.25 84.245V153.845L266.365 152.25Z" fill="white"/>
</svg>
